<svg width="960" height="640" viewBox="0 0 960 640" fill="none" xmlns="http://www.w3.org/2000/svg" role="img" aria-labelledby="aboutTitle aboutDesc">
  <title id="aboutTitle">HireFlow team illustration</title>
  <desc id="aboutDesc">Stylized team collaboration board with profile avatars, goals, and progress cards.</desc>
  <defs>
    <linearGradient id="aboutBg" x1="90" y1="60" x2="860" y2="580" gradientUnits="userSpaceOnUse">
      <stop stop-color="#F5F9FF"/>
      <stop offset="1" stop-color="#E5EEFF"/>
    </linearGradient>
    <linearGradient id="aboutAccent" x1="0" y1="0" x2="1" y2="1">
      <stop stop-color="#1F2F84"/>
      <stop offset="1" stop-color="#4167DF"/>
    </linearGradient>
    <linearGradient id="aboutMint" x1="0" y1="0" x2="1" y2="1">
      <stop stop-color="#3DA9FC"/>
      <stop offset="1" stop-color="#7CD5FF"/>
    </linearGradient>
    <filter id="aboutShadow" x="100" y="52" width="760" height="536" filterUnits="userSpaceOnUse" color-interpolation-filters="sRGB">
      <feFlood flood-opacity="0" result="BackgroundImageFix"/>
      <feColorMatrix in="SourceAlpha" type="matrix" values="0 0 0 0 0 0 0 0 0 0 0 0 0 0 0 0 0 0 127 0" result="hardAlpha"/>
      <feOffset dy="14"/>
      <feGaussianBlur stdDeviation="20"/>
      <feComposite in2="hardAlpha" operator="out"/>
      <feColorMatrix type="matrix" values="0 0 0 0 0.06 0 0 0 0 0.13 0 0 0 0 0.34 0 0 0 0.18 0"/>
      <feBlend mode="normal" in2="BackgroundImageFix" result="effect1_dropShadow_about"/>
      <feBlend mode="normal" in="SourceGraphic" in2="effect1_dropShadow_about" result="shape"/>
    </filter>
  </defs>

  <rect width="960" height="640" rx="42" fill="url(#aboutBg)"/>
  <circle cx="118" cy="110" r="70" fill="#D8E6FF" fill-opacity="0.7"/>
  <circle cx="838" cy="520" r="112" fill="#C4E8FF" fill-opacity="0.52"/>

  <g filter="url(#aboutShadow)">
    <rect x="160" y="106" width="640" height="420" rx="26" fill="#FFFFFF"/>
    <rect x="192" y="138" width="576" height="68" rx="16" fill="#F1F6FF"/>
    <rect x="216" y="160" width="180" height="24" rx="12" fill="url(#aboutAccent)"/>
    <rect x="664" y="160" width="76" height="24" rx="12" fill="#DCE8FF"/>

    <rect x="192" y="226" width="266" height="270" rx="20" fill="#F8FBFF"/>
    <circle cx="325" cy="284" r="56" fill="#DCE9FF"/>
    <circle cx="325" cy="270" r="24" fill="url(#aboutAccent)"/>
    <path d="M272 330C286 304 309 292 325 292C341 292 364 304 378 330V340H272V330Z" fill="url(#aboutAccent)"/>
    <rect x="236" y="366" width="178" height="16" rx="8" fill="#D8E5FF"/>
    <rect x="252" y="394" width="146" height="12" rx="6" fill="#E7EFFF"/>
    <rect x="252" y="416" width="118" height="12" rx="6" fill="#EEF4FF"/>

    <rect x="478" y="226" width="290" height="122" rx="20" fill="#F8FBFF"/>
    <rect x="500" y="250" width="132" height="16" rx="8" fill="#D8E5FF"/>
    <rect x="500" y="280" width="240" height="12" rx="6" fill="#E7EFFF"/>
    <rect x="500" y="302" width="210" height="12" rx="6" fill="#EEF4FF"/>
    <rect x="666" y="250" width="74" height="74" rx="14" fill="url(#aboutMint)"/>
    <path d="M684 288L699 302L724 272" stroke="#FFFFFF" stroke-width="8" stroke-linecap="round" stroke-linejoin="round"/>

    <rect x="478" y="366" width="290" height="130" rx="20" fill="#F8FBFF"/>
    <rect x="500" y="390" width="132" height="16" rx="8" fill="#D8E5FF"/>
    <rect x="500" y="420" width="248" height="12" rx="6" fill="#E7EFFF"/>
    <rect x="500" y="442" width="228" height="12" rx="6" fill="#EEF4FF"/>
    <rect x="500" y="464" width="168" height="12" rx="6" fill="#D5E4FF"/>
  </g>
</svg>
